<svg xmlns="http://www.w3.org/2000/svg" xmlns:xlink="http://www.w3.org/1999/xlink" version="1.1" x="0px" y="0px" viewBox="0 0 512 640" style="enable-background:new 0 0 512 512;" xml:space="preserve"><g><g><g><g><g><g><path d="M259.305,31c-1.32,0-2.6-0.53-3.54-1.47c-0.93-0.92-1.46-2.21-1.46-3.53c0-1.32,0.53-2.6,1.46-3.54        c0.93-0.93,2.219-1.46,3.54-1.46s2.6,0.53,3.541,1.46c0.93,0.94,1.459,2.23,1.459,3.54c0,1.32-0.529,2.6-1.459,3.53        C261.904,30.47,260.615,31,259.305,31z"/></g><g><path d="M259.305,61c-1.311,0-2.6-0.53-3.54-1.46c-0.93-0.93-1.46-2.22-1.46-3.54c0-1.32,0.53-2.61,1.46-3.54        c0.93-0.93,2.219-1.46,3.54-1.46s2.6,0.53,3.541,1.46c0.93,0.94,1.459,2.23,1.459,3.54s-0.529,2.6-1.459,3.54        C261.904,60.47,260.615,61,259.305,61z"/></g><g><path d="M259.305,91c-1.32,0-2.61-0.53-3.54-1.46c-0.93-0.94-1.46-2.22-1.46-3.54c0-1.32,0.53-2.61,1.46-3.53        c0.93-0.94,2.219-1.47,3.54-1.47s2.6,0.53,3.541,1.47c0.93,0.93,1.459,2.22,1.459,3.53s-0.529,2.6-1.459,3.54        C261.904,90.47,260.625,91,259.305,91z"/></g></g></g><g><g><path d="M416.336,93.97c-1.32,0-2.611-0.53-3.541-1.46s-1.459-2.22-1.459-3.54c0-1.32,0.529-2.6,1.459-3.53       c0.93-0.93,2.221-1.47,3.541-1.47c1.318,0,2.6,0.54,3.529,1.47c0.93,0.93,1.471,2.22,1.471,3.53c0,1.32-0.541,2.61-1.471,3.54       S417.645,93.97,416.336,93.97z"/></g><g><path d="M395.115,115.19c-1.311,0-2.6-0.54-3.529-1.47c-0.932-0.93-1.471-2.22-1.471-3.53c0-1.32,0.539-2.61,1.471-3.54       c0.93-0.93,2.219-1.47,3.529-1.47c1.32,0,2.609,0.54,3.539,1.47c0.932,0.93,1.461,2.22,1.461,3.54c0,1.31-0.529,2.6-1.461,3.53       C397.725,114.65,396.436,115.19,395.115,115.19z"/></g><g><path d="M373.904,136.4c-1.318,0-2.6-0.54-3.539-1.47c-0.92-0.92-1.461-2.21-1.461-3.53c0-1.32,0.541-2.61,1.461-3.54       c0.93-0.93,2.221-1.46,3.539-1.46c1.32,0,2.611,0.53,3.541,1.46s1.459,2.22,1.459,3.54c0,1.32-0.529,2.6-1.459,3.53       C376.516,135.86,375.225,136.4,373.904,136.4z"/></g></g><g><g><path d="M138.095,355.6c-1.32,0-2.61-0.53-3.54-1.46c-0.93-0.93-1.46-2.22-1.46-3.54c0-1.319,0.53-2.6,1.46-3.53       c0.93-0.93,2.22-1.47,3.54-1.47c1.31,0,2.6,0.54,3.53,1.47c0.93,0.931,1.47,2.211,1.47,3.53c0,1.32-0.54,2.61-1.47,3.54       S139.405,355.6,138.095,355.6z"/></g><g><path d="M116.875,376.81c-1.31,0-2.6-0.529-3.53-1.46c-0.93-0.93-1.47-2.22-1.47-3.54c0-1.31,0.54-2.6,1.47-3.529       c0.93-0.931,2.22-1.461,3.53-1.461c1.32,0,2.61,0.53,3.54,1.461c0.93,0.93,1.46,2.22,1.46,3.529c0,1.32-0.53,2.61-1.46,3.54       C119.485,376.28,118.195,376.81,116.875,376.81z"/></g><g><path d="M95.665,398.03c-1.31,0-2.6-0.54-3.53-1.471c-0.94-0.93-1.47-2.22-1.47-3.529c0-1.32,0.53-2.61,1.47-3.54       c0.93-0.931,2.21-1.46,3.53-1.46s2.61,0.529,3.54,1.46c0.93,0.93,1.46,2.22,1.46,3.54c0,1.31-0.53,2.6-1.46,3.529       C98.265,397.49,96.985,398.03,95.665,398.03z"/></g></g><g><g><path d="M479.305,246c-1.32,0-2.609-0.53-3.539-1.46c-0.93-0.93-1.461-2.22-1.461-3.54c0-1.32,0.531-2.61,1.461-3.54       c0.93-0.93,2.219-1.46,3.539-1.46s2.6,0.53,3.531,1.46c0.939,0.93,1.469,2.22,1.469,3.54c0,1.32-0.529,2.6-1.469,3.54       C481.904,245.47,480.625,246,479.305,246z"/></g><g><path d="M449.305,246c-1.32,0-2.6-0.53-3.539-1.46c-0.93-0.93-1.461-2.22-1.461-3.54c0-1.32,0.531-2.61,1.461-3.53       c0.93-0.94,2.219-1.47,3.539-1.47s2.6,0.53,3.541,1.47c0.93,0.92,1.459,2.21,1.459,3.53c0,1.32-0.529,2.61-1.459,3.54       C451.904,245.47,450.615,246,449.305,246z"/></g><g><path d="M419.305,246c-1.32,0-2.6-0.53-3.539-1.47c-0.93-0.93-1.461-2.21-1.461-3.53c0-1.32,0.531-2.6,1.461-3.53       c0.93-0.94,2.219-1.47,3.539-1.47s2.609,0.53,3.531,1.47c0.939,0.92,1.469,2.21,1.469,3.53c0,1.32-0.529,2.61-1.469,3.54       C421.914,245.47,420.625,246,419.305,246z"/></g></g><g><g><path d="M92.695,246c-1.32,0-2.61-0.53-3.54-1.46c-0.93-0.93-1.46-2.22-1.46-3.54c0-1.32,0.53-2.61,1.46-3.54       c0.93-0.93,2.22-1.46,3.54-1.46c1.32,0,2.6,0.53,3.53,1.46c0.93,0.94,1.47,2.22,1.47,3.54c0,1.32-0.54,2.61-1.47,3.54       C95.295,245.47,94.015,246,92.695,246z"/></g><g><path d="M62.695,246c-1.32,0-2.61-0.53-3.54-1.46c-0.93-0.93-1.46-2.22-1.46-3.54c0-1.32,0.53-2.61,1.46-3.54       c0.93-0.93,2.22-1.46,3.54-1.46c1.32,0,2.6,0.53,3.53,1.46c0.93,0.93,1.47,2.22,1.47,3.54c0,1.32-0.54,2.61-1.47,3.54       C65.295,245.47,64.015,246,62.695,246z"/></g><g><path d="M32.695,246c-1.32,0-2.61-0.53-3.54-1.46c-0.93-0.93-1.46-2.22-1.46-3.54c0-1.32,0.53-2.61,1.46-3.54       c0.93-0.93,2.22-1.46,3.54-1.46c1.32,0,2.6,0.53,3.53,1.46c0.93,0.93,1.47,2.22,1.47,3.54c0,1.32-0.54,2.61-1.47,3.54       C35.295,245.47,34.015,246,32.695,246z"/></g></g><g><g><path d="M95.665,93.97c-1.32,0-2.61-0.53-3.53-1.46c-0.93-0.93-1.47-2.22-1.47-3.54c0-1.32,0.54-2.6,1.47-3.53       c0.92-0.93,2.21-1.47,3.53-1.47s2.61,0.54,3.54,1.47c0.93,0.93,1.46,2.21,1.46,3.53c0,1.32-0.53,2.61-1.46,3.54       C98.275,93.44,96.985,93.97,95.665,93.97z"/></g><g><path d="M116.875,115.19c-1.31,0-2.6-0.54-3.53-1.47c-0.93-0.93-1.47-2.22-1.47-3.53c0-1.32,0.54-2.61,1.47-3.54       c0.93-0.93,2.22-1.46,3.53-1.46c1.32,0,2.61,0.53,3.54,1.46c0.93,0.93,1.46,2.22,1.46,3.54c0,1.31-0.53,2.6-1.46,3.53       C119.485,114.65,118.195,115.19,116.875,115.19z"/></g><g><path d="M138.095,136.4c-1.32,0-2.61-0.54-3.54-1.47c-0.93-0.93-1.46-2.21-1.46-3.53c0-1.32,0.53-2.61,1.46-3.54       c0.93-0.93,2.22-1.46,3.54-1.46c1.31,0,2.6,0.53,3.53,1.46s1.47,2.22,1.47,3.54c0,1.32-0.54,2.6-1.47,3.53       C140.695,135.86,139.405,136.4,138.095,136.4z"/></g></g><g><g><path d="M373.904,355.6c-1.318,0-2.6-0.53-3.539-1.46c-0.92-0.93-1.461-2.22-1.461-3.54c0-1.319,0.541-2.609,1.461-3.54       c0.93-0.92,2.221-1.46,3.539-1.46c1.32,0,2.611,0.54,3.541,1.46c0.93,0.94,1.459,2.23,1.459,3.54c0,1.32-0.529,2.61-1.459,3.54       S375.225,355.6,373.904,355.6z"/></g><g><path d="M395.115,376.81c-1.311,0-2.6-0.529-3.529-1.46c-0.932-0.93-1.471-2.22-1.471-3.54c0-1.31,0.539-2.6,1.471-3.529       c0.93-0.931,2.219-1.471,3.529-1.471c1.32,0,2.609,0.54,3.539,1.471c0.932,0.93,1.461,2.22,1.461,3.529       c0,1.32-0.529,2.61-1.461,3.54C397.725,376.28,396.436,376.81,395.115,376.81z"/></g><g><path d="M416.336,398.03c-1.32,0-2.611-0.54-3.541-1.471c-0.93-0.93-1.459-2.21-1.459-3.529c0-1.32,0.529-2.61,1.459-3.54       c0.93-0.931,2.221-1.46,3.541-1.46c1.309,0,2.6,0.529,3.529,1.46c0.93,0.93,1.471,2.22,1.471,3.54       c0,1.319-0.541,2.6-1.471,3.529C418.936,397.49,417.645,398.03,416.336,398.03z"/></g></g><g><path d="M309.305,401h-100c-2.761,0-5-2.238-5-5v-47.728c-42.631-20.921-70-64.636-70-112.272c0-68.925,56.075-125,125-125      c68.926,0,125,56.075,125,125c0,47.637-27.367,91.352-70,112.272V396C314.305,398.762,312.066,401,309.305,401z M214.305,391h90      v-45.888c0-1.954,1.139-3.729,2.914-4.544c40.754-18.706,67.086-59.752,67.086-104.568c0-63.411-51.588-115-115-115      c-63.411,0-115,51.589-115,115c0,44.817,26.333,85.862,67.086,104.568c1.776,0.814,2.914,2.59,2.914,4.544V391z"/></g><g><path d="M299.305,461h-80c-2.761,0-5-2.238-5-5v-60c0-2.762,2.239-5,5-5h80c2.762,0,5,2.238,5,5v60      C304.305,458.762,302.066,461,299.305,461z M224.305,451h70v-50h-70V451z"/></g><g><path d="M279.305,491c-2.762,0-5-2.238-5-5v-25h-30v25c0,2.762-2.239,5-5,5s-5-2.238-5-5v-30c0-2.762,2.239-5,5-5h40      c2.762,0,5,2.238,5,5v30C284.305,488.762,282.066,491,279.305,491z"/></g><g><path d="M329.305,431h-140c-2.761,0-5-2.238-5-5s2.239-5,5-5h140c2.762,0,5,2.238,5,5S332.066,431,329.305,431z"/></g><g><path d="M329.305,401h-140c-2.761,0-5-2.238-5-5s2.239-5,5-5h140c2.762,0,5,2.238,5,5S332.066,401,329.305,401z"/></g><g><path d="M259.305,291c-30.327,0-55-24.673-55-55s24.673-55,55-55c30.328,0,55,24.673,55,55S289.633,291,259.305,291z       M259.305,191c-24.813,0-45,20.187-45,45c0,24.813,20.187,45,45,45c24.814,0,45-20.187,45-45      C304.305,211.187,284.119,191,259.305,191z"/></g><g><path d="M259.305,401c-2.761,0-5-2.238-5-5V236c0-2.761,2.238-5,5-5c2.762,0,5,2.239,5,5v160      C264.305,398.762,262.066,401,259.305,401z"/></g></g></g></g><text x="0" y="527" fill="#000000" font-size="5px" font-weight="bold" font-family="'Helvetica Neue', Helvetica, Arial-Unicode, Arial, Sans-serif">Created by Flatart</text><text x="0" y="532" fill="#000000" font-size="5px" font-weight="bold" font-family="'Helvetica Neue', Helvetica, Arial-Unicode, Arial, Sans-serif">from the Noun Project</text></svg>