<svg xmlns="http://www.w3.org/2000/svg" xmlns:xlink="http://www.w3.org/1999/xlink" xml:space="preserve" version="1.1" style="shape-rendering:geometricPrecision;text-rendering:geometricPrecision;image-rendering:optimizeQuality;" viewBox="0 0 751 740" x="0px" y="0px" fill-rule="evenodd" clip-rule="evenodd"><defs><style type="text/css">
   
    .fil0 {fill:black}
   
  </style></defs><g><path class="fil0" d="M60 0l631 0c33,0 60,27 60,60 0,33 -27,60 -60,60l-631 0c-33,0 -60,-27 -60,-60 0,-33 27,-60 60,-60z"/><path class="fil0" d="M60 236l631 0c33,0 60,27 60,60 0,33 -27,60 -60,60l-631 0c-33,0 -60,-27 -60,-60 0,-33 27,-60 60,-60z"/><path class="fil0" d="M60 472l631 0c33,0 60,27 60,60 0,33 -27,60 -60,60l-631 0c-33,0 -60,-27 -60,-60 0,-33 27,-60 60,-60z"/></g><text x="0" y="607" fill="#000000" font-size="5px" font-weight="bold" font-family="'Helvetica Neue', Helvetica, Arial-Unicode, Arial, Sans-serif">Created by QOLBIN SALIIM</text><text x="0" y="612" fill="#000000" font-size="5px" font-weight="bold" font-family="'Helvetica Neue', Helvetica, Arial-Unicode, Arial, Sans-serif">from the Noun Project</text></svg>