<svg xmlns="http://www.w3.org/2000/svg" xmlns:xlink="http://www.w3.org/1999/xlink" xmlns:sketch="http://www.bohemiancoding.com/sketch/ns" viewBox="0 0 100 125" version="1.1" x="0px" y="0px"><title>26 copy</title><desc>Created with Sketch.</desc><g stroke="none" stroke-width="1" fill="none" fill-rule="evenodd" sketch:type="MSPage"><path d="M40.4137807,39.7781688 C42.1816158,39.1192037 44.016601,38.6269943 45.8954574,38.3219095 C46.6276161,38.2028302 47.1247497,37.5129761 47.0056704,36.7808175 C46.886815,36.0486589 46.194051,35.5521967 45.4648022,35.6706045 C43.3925538,36.0072497 41.3691011,36.5518361 39.4206325,37.2824278 C38.4409142,37.6497382 37.4806695,38.064949 36.5428081,38.525374 C33.6658791,39.9375381 31.0033824,41.7761046 28.6569382,43.9763856 C27.8959051,44.6897422 27.1682231,45.4409267 26.477026,46.2283721 C25.6369797,47.1854832 24.8497581,48.1940759 24.1245383,49.2530311 C23.7052986,49.8652151 23.8617581,50.7010085 24.4739421,51.1200244 C24.7058333,51.278946 24.9697328,51.3550493 25.23117,51.3550493 C25.6593631,51.3550493 26.0803934,51.1506895 26.3404877,50.7708445 C26.9716975,49.8490991 27.6546128,48.9696582 28.380728,48.1320741 C29.0672246,47.340152 29.7935635,46.5871768 30.5563873,45.8758347 C32.6422896,43.9311713 34.9970156,42.2967407 37.5381947,41.0273823 C38.4729224,40.5604661 39.4331671,40.1436885 40.4137807,39.7781688 M60.7526145,67.9057289 C60.7526145,61.6945795 55.6995784,56.6417673 49.4884291,56.6417673 C43.2772797,56.6417673 38.2242436,61.6945795 38.2242436,67.9057289 C38.2242436,74.1166544 43.2772797,79.1699143 49.4884291,79.1699143 C55.6995784,79.1699143 60.7526145,74.1166544 60.7526145,67.9057289 M66.084323,40.909646 C65.1567579,44.3976398 64.2294167,47.8854098 63.3018516,51.3731798 C62.7668901,53.3856647 62.2317047,55.3979258 61.6965194,57.4104107 C61.6582439,57.5545594 61.6199684,57.698708 61.5814691,57.8426328 C63.8574058,60.572951 65.2292799,64.0817613 65.2292799,67.9057289 C65.2292799,76.5853116 58.1680117,83.6465797 49.4884291,83.6465797 C40.8088464,83.6465797 33.7475782,76.5853116 33.7475782,67.9057289 C33.7475782,63.9047092 35.2506187,60.2497358 37.7183804,57.4697266 C40.6785754,54.1350585 45.0272082,52.1651019 49.4884291,52.1651019 C50.0822587,52.1651019 50.6675827,52.2011391 51.2446249,52.2653792 C51.3377395,52.2758994 51.4299588,52.2888817 51.522402,52.3009687 C53.1998085,50.6155042 54.8727384,48.9257868 56.5434299,47.2336073 C58.5628536,45.1882189 60.5809344,43.140816 62.5999105,41.0938608 C63.0574257,40.6298544 63.5144932,40.165848 63.9722322,39.7020655 C64.8789808,38.7839014 66.41582,39.662447 66.084323,40.909646 M95,45.5770173 L82.8836813,51.3700461 C81.2989418,48.0555231 79.232513,45.0178818 76.7696756,42.3372546 L81.0404143,38.066292 L78.824465,35.8505664 L74.5564122,40.1186192 C73.0063668,38.6954873 71.3311986,37.4001641 69.5441138,36.2505565 C68.2803512,35.437594 66.9709265,34.7117027 65.6277031,34.0643769 L68.0086176,28.5368144 L65.1305694,27.2972257 L62.7498788,32.8245645 C59.0857281,31.4323215 55.2071453,30.6332368 51.2446249,30.466481 L51.2446249,24.426564 L48.1109591,24.426564 L48.1109591,30.466481 C44.4403173,30.6202544 40.8766679,31.3123469 37.51223,32.4856809 L35.2812838,26.8786575 L32.3696606,28.0372185 L34.600383,33.6435704 C31.0080829,35.2533793 27.696022,37.433963 24.789547,40.1089944 L20.531119,35.8505664 L18.3151697,38.066292 L22.5765075,42.3278536 C20.3822699,44.7242125 18.4794633,47.4343858 16.9435194,50.4216646 L5,44.2803512 C9.15524081,36.198851 15.4328687,29.3833518 23.1539973,24.5711603 C31.1011975,19.6179539 40.2732134,17 49.677792,17 C59.3368691,17 68.7190644,19.7509109 76.8097417,24.9557059 C84.680391,30.0185906 90.9705535,37.1494709 95,45.5770173" fill="#000000" sketch:type="MSShapeGroup"/></g><text x="0" y="115" fill="#000000" font-size="5px" font-weight="bold" font-family="'Helvetica Neue', Helvetica, Arial-Unicode, Arial, Sans-serif">Created by Icon Island</text><text x="0" y="120" fill="#000000" font-size="5px" font-weight="bold" font-family="'Helvetica Neue', Helvetica, Arial-Unicode, Arial, Sans-serif">from the Noun Project</text></svg>