<svg xmlns="http://www.w3.org/2000/svg" xmlns:xlink="http://www.w3.org/1999/xlink" version="1.1" x="0px" y="0px" viewBox="0 0 98 122.5" style="enable-background:new 0 0 98 98;" xml:space="preserve"><g><path d="M84.3,19.8H61.7v-3.9c0-3.9-3.1-7-7-7H42.3c-3.9,0-7,3.1-7,7v3.9H13.7c-1.1,0-2,0.9-2,2s0.9,2,2,2h5   l4.4,58c0.3,4.1,3.8,7.4,8,7.4h34.9c4.2,0,7.7-3.2,8-7.4l4.4-58h6c1.1,0,2-0.9,2-2S85.4,19.8,84.3,19.8z M39.3,15.9   c0-1.7,1.3-3,3-3h12.5c1.7,0,3,1.3,3,3v3.9H39.3V15.9z M69.9,81.4c-0.2,2.1-1.9,3.7-4,3.7H31.1c-2.1,0-3.8-1.6-4-3.7l-4.4-57.7   h12.6h4h18.5h4h12.6L69.9,81.4z"/><path d="M48.5,34.1c-1.1,0-2,0.9-2,2v36.9c0,1.1,0.9,2,2,2s2-0.9,2-2V36.1C50.5,35,49.6,34.1,48.5,34.1z"/><path d="M59.5,36l-2,36.9c-0.1,1.1,0.8,2,1.9,2.1c0,0,0.1,0,0.1,0c1.1,0,1.9-0.8,2-1.9l2-36.9   c0.1-1.1-0.8-2-1.9-2.1C60.5,34.1,59.6,34.9,59.5,36z"/><path d="M35.4,34.1c-1.1,0.1-1.9,1-1.9,2.1l2,36.9c0.1,1.1,0.9,1.9,2,1.9c0,0,0.1,0,0.1,0c1.1-0.1,1.9-1,1.9-2.1   l-2-36.9C37.4,34.9,36.5,34.1,35.4,34.1z"/></g><text x="0" y="113" fill="#000000" font-size="5px" font-weight="bold" font-family="'Helvetica Neue', Helvetica, Arial-Unicode, Arial, Sans-serif">Created by Fantastic</text><text x="0" y="118" fill="#000000" font-size="5px" font-weight="bold" font-family="'Helvetica Neue', Helvetica, Arial-Unicode, Arial, Sans-serif">from the Noun Project</text></svg>