<svg xmlns="http://www.w3.org/2000/svg" data-name="Layer 1" viewBox="0 0 64 80" x="0px" y="0px"><title>Email</title><path d="M59.28,52H4.72A4.73,4.73,0,0,1,0,47.28V16.72A4.73,4.73,0,0,1,4.72,12H59.28A4.73,4.73,0,0,1,64,16.72V47.28A4.73,4.73,0,0,1,59.28,52ZM4.72,14A2.72,2.72,0,0,0,2,16.72V47.28A2.72,2.72,0,0,0,4.72,50H59.28A2.72,2.72,0,0,0,62,47.28V16.72A2.72,2.72,0,0,0,59.28,14Z"/><path d="M32,33.86a1,1,0,0,1-.54-.15l-30-19L2.54,13,32,31.68,61.46,13l1.08,1.69-30,19A1,1,0,0,1,32,33.86Z"/><rect x="49" y="23.34" width="2" height="32.17" transform="translate(-12.71 50.48) rotate(-48.25)"/><rect x="-2.08" y="38.43" width="32.17" height="2" transform="translate(-22.7 19.34) rotate(-41.75)"/><text x="0" y="79" fill="#000000" font-size="5px" font-weight="bold" font-family="'Helvetica Neue', Helvetica, Arial-Unicode, Arial, Sans-serif">Created by suriya saithong</text><text x="0" y="84" fill="#000000" font-size="5px" font-weight="bold" font-family="'Helvetica Neue', Helvetica, Arial-Unicode, Arial, Sans-serif">from the Noun Project</text></svg>