<svg xmlns:x="http://ns.adobe.com/Extensibility/1.0/" xmlns:i="http://ns.adobe.com/AdobeIllustrator/10.0/" xmlns:graph="http://ns.adobe.com/Graphs/1.0/" xmlns="http://www.w3.org/2000/svg" xmlns:xlink="http://www.w3.org/1999/xlink" version="1.1" x="0px" y="0px" viewBox="0 0 100 125" enable-background="new 0 0 100 100" xml:space="preserve"><metadata><sfw xmlns="http://ns.adobe.com/SaveForWeb/1.0/"><slices/><sliceSourceBounds width="1448.7" height="1448.2" x="0.3" y="-1449.4" bottomLeftOrigin="true"/></sfw></metadata><path d="M37.6,48.8c0,0.8-0.7,1.5-1.5,1.5h-5.6c-0.8,0-1.5-0.7-1.5-1.5v-5.6c0-0.8,0.7-1.5,1.5-1.5h5.6c0.8,0,1.5,0.7,1.5,1.5V48.8z   M49.4,43.2c0-0.8-0.7-1.5-1.5-1.5h-5.6c-0.8,0-1.5,0.7-1.5,1.5v5.6c0,0.8,0.7,1.5,1.5,1.5h5.6c0.8,0,1.5-0.7,1.5-1.5V43.2z   M61.2,43.2c0-0.8-0.7-1.5-1.5-1.5H54c-0.8,0-1.5,0.7-1.5,1.5v5.6c0,0.8,0.7,1.5,1.5,1.5h5.6c0.8,0,1.5-0.7,1.5-1.5V43.2z   M37.6,54.6c0-0.8-0.7-1.5-1.5-1.5h-5.6c-0.8,0-1.5,0.7-1.5,1.5v5.6c0,0.8,0.7,1.5,1.5,1.5h5.6c0.8,0,1.5-0.7,1.5-1.5V54.6z   M49.4,54.6c0-0.8-0.7-1.5-1.5-1.5h-5.6c-0.8,0-1.5,0.7-1.5,1.5v5.6c0,0.8,0.7,1.5,1.5,1.5h5.6c0.8,0,1.5-0.7,1.5-1.5V54.6z   M59.7,53.1H54c-0.8,0-1.5,0.7-1.5,1.5v5.6c0,0.8,0.7,1.5,1.5,1.5h5.6c0.8,0,1.5-0.7,1.5-1.5v-5.6C61.2,53.8,60.5,53.1,59.7,53.1z   M24.3,64.6h-5.6c-0.8,0-1.5,0.7-1.5,1.5v5.6c0,0.8,0.7,1.5,1.5,1.5h5.6c0.8,0,1.5-0.7,1.5-1.5v-5.6C25.8,65.3,25.2,64.6,24.3,64.6z   M25.8,54.6c0-0.8-0.7-1.5-1.5-1.5h-5.6c-0.8,0-1.5,0.7-1.5,1.5v5.6c0,0.8,0.7,1.5,1.5,1.5h5.6c0.8,0,1.5-0.7,1.5-1.5V54.6z   M47.9,64.6h-5.6c-0.8,0-1.5,0.7-1.5,1.5v5.6c0,0.8,0.7,1.5,1.5,1.5h5.6c0.8,0,1.5-0.7,1.5-1.5v-5.6C49.4,65.3,48.7,64.6,47.9,64.6z   M36.1,64.6h-5.6c-0.8,0-1.5,0.7-1.5,1.5v5.6c0,0.8,0.7,1.5,1.5,1.5h5.6c0.8,0,1.5-0.7,1.5-1.5v-5.6C37.6,65.3,36.9,64.6,36.1,64.6z   M65.8,41.7c-0.8,0-1.5,0.7-1.5,1.5v5.6c0,0.8,0.7,1.5,1.5,1.5h5.6c0.8,0,1.5-0.7,1.5-1.5v-5.6c0-0.8-0.7-1.5-1.5-1.5H65.8z   M4.6,22.2v54.4c0,4.9,4,8.8,8.8,8.8h42.8c-0.7-2.2-1.1-4.5-1.1-6.8H13.5c-1.1,0-2-0.9-2-2V36.4h67.1v18.8c2.4,0,4.7,0.4,6.8,1V22.2  c0-4.9-4-8.8-8.8-8.8h-9.9V7.9c0-1.8-1.4-3.2-3.2-3.2h-5c-1.8,0-3.2,1.4-3.2,3.2v5.5H34.9V7.9c0-1.8-1.4-3.2-3.2-3.2h-5  c-1.8,0-3.2,1.4-3.2,3.2v5.5h-9.9C8.6,13.4,4.6,17.4,4.6,22.2z M95.4,78.4c0,9.3-7.6,16.9-16.9,16.9c-9.3,0-16.9-7.6-16.9-16.9  c0-9.3,7.6-16.9,16.9-16.9C87.8,61.5,95.4,69.1,95.4,78.4z M87,74.7l-3.2-3.2l-7.4,7.4l-3.1-3.1L69.9,79l3.1,3.1l3.2,3.3l3.3-3.2  L87,74.7z"/><text x="0" y="115" fill="#000000" font-size="5px" font-weight="bold" font-family="'Helvetica Neue', Helvetica, Arial-Unicode, Arial, Sans-serif">Created by Gregor Cresnar</text><text x="0" y="120" fill="#000000" font-size="5px" font-weight="bold" font-family="'Helvetica Neue', Helvetica, Arial-Unicode, Arial, Sans-serif">from the Noun Project</text></svg>