<svg xmlns="http://www.w3.org/2000/svg" xmlns:xlink="http://www.w3.org/1999/xlink" version="1.1" x="0px" y="0px" viewBox="0 0 100 125" enable-background="new 0 0 100 100" xml:space="preserve"><g><path d="M78.635,48.135c6.514-6.513,6.061-17.564-1.009-24.634c-7.069-7.069-18.119-7.521-24.633-1.008   c-5.372,5.373-5.994,13.826-2.085,20.591L31.808,62.186l-2.251-2.252c-1.432-1.432-3.762-1.432-5.193,0l-6.528,6.528   c-1.432,1.432-1.432,3.761,0,5.192l2.252,2.253c-1.427,1.432-1.426,3.758,0.004,5.188l1.942,1.943c1.432,1.431,3.761,1.431,5.193,0   L58.043,50.22C64.81,54.129,73.263,53.508,78.635,48.135z M19.956,68.583l6.528-6.528c0.262-0.262,0.688-0.262,0.95,0l2.252,2.252   l-7.479,7.479l-2.252-2.252C19.694,69.271,19.694,68.845,19.956,68.583z M25.105,78.916c-0.262,0.262-0.688,0.262-0.95,0   l-1.943-1.942c-0.262-0.262-0.262-0.688,0-0.95L52.635,45.6c0.426,0.525,0.876,1.037,1.366,1.527   c0.489,0.489,1.002,0.939,1.526,1.366L25.105,78.916z M56.122,45.005c-5.899-5.899-6.352-15.047-1.008-20.391   s14.491-4.892,20.391,1.008s6.353,15.047,1.009,20.391C71.169,51.357,62.021,50.905,56.122,45.005z"/><path d="M73.545,27.583c-4.608-4.608-11.825-4.888-16.088-0.625c-4.263,4.263-3.982,11.479,0.625,16.087   c4.608,4.608,11.825,4.889,16.088,0.625C78.434,39.408,78.152,32.19,73.545,27.583z M60.203,40.924   c-3.438-3.438-3.718-8.752-0.625-11.845c3.094-3.093,8.407-2.813,11.846,0.625c3.438,3.438,3.719,8.752,0.625,11.845   C68.956,44.643,63.642,44.362,60.203,40.924z"/></g><text x="0" y="115" fill="#000000" font-size="5px" font-weight="bold" font-family="'Helvetica Neue', Helvetica, Arial-Unicode, Arial, Sans-serif">Created by asianson.design</text><text x="0" y="120" fill="#000000" font-size="5px" font-weight="bold" font-family="'Helvetica Neue', Helvetica, Arial-Unicode, Arial, Sans-serif">from the Noun Project</text></svg>