<svg xmlns="http://www.w3.org/2000/svg" xmlns:xlink="http://www.w3.org/1999/xlink" version="1.1" x="0px" y="0px" viewBox="0 0 100 125" style="enable-background:new 0 0 100 100;" xml:space="preserve"><path d="M49,11c-4.4,0-8,3.6-8,8v0.4c-8.9,3.3-15,11.9-15,21.5L25.6,46c-1.1,9.9-3.7,15.6-5.2,18.1c-3.7,0.7-6.5,4-6.5,7.8  c0,4.4,3.6,8,8,8h16.6c0.7,5.4,5.1,9.5,10.4,9.5s9.7-4.2,10.4-9.5H76c4.4,0,8-3.6,8-8c0-3.9-2.8-7.1-6.5-7.8  c-1.5-2.5-4.1-8.3-5.2-18.1L72,40.9c0-9.6-6.1-18.2-15-21.5V19C57,14.6,53.4,11,49,11z M49,15c2.2,0,4,1.8,4,4h-8  C45,16.8,46.8,15,49,15z M49,85.5c-3.1,0-5.8-2.4-6.4-5.5h12.7C54.8,83.2,52.1,85.5,49,85.5z M80,72c0,2.2-1.8,4-4,4H59.4H38.6H22  c-2.2,0-4-1.8-4-4c0-2.1,1.7-3.9,3.8-4l0.3,0H76l0.3,0C78.3,68.1,80,69.9,80,72z M68,41l0.4,5.4c0.9,8.4,2.9,14.1,4.6,17.6H25.1  c1.6-3.4,3.6-9.2,4.6-17.6l0.4-5.2l0-0.1c0-8.2,5.3-15.4,13-18h12C62.7,25.6,68,32.8,68,41z"/><text x="0" y="115" fill="#000000" font-size="5px" font-weight="bold" font-family="'Helvetica Neue', Helvetica, Arial-Unicode, Arial, Sans-serif">Created by Besticons</text><text x="0" y="120" fill="#000000" font-size="5px" font-weight="bold" font-family="'Helvetica Neue', Helvetica, Arial-Unicode, Arial, Sans-serif">from the Noun Project</text></svg>