<svg xmlns="http://www.w3.org/2000/svg" xmlns:xlink="http://www.w3.org/1999/xlink" version="1.1" x="0px" y="0px" viewBox="0 0 50 62.5" enable-background="new 0 0 50 50" xml:space="preserve"><g><path fill-rule="evenodd" clip-rule="evenodd" d="M20.372,32.703c4.8,0,8.311-3.643,9.875-8.125c0.55-1.575,0.86-3.264,0.897-4.933   c0.038-1.687-0.204-3.358-0.754-4.88c-1.369-3.782-4.563-6.629-10.018-6.629c-5.455,0-8.648,2.847-10.018,6.629   c-0.55,1.522-0.792,3.193-0.754,4.88c0.037,1.669,0.347,3.358,0.896,4.933C12.061,29.061,15.573,32.703,20.372,32.703    M18.776,17.235c2.524,1.355,6.647,2.953,9.473,3.369c-0.105,1.036-0.335,2.066-0.676,3.043c-1.109,3.177-3.562,6.226-7.201,6.226   c-3.638,0-6.092-3.049-7.201-6.226c-0.35-1.004-0.582-2.063-0.683-3.127C14.667,19.675,16.856,18.568,18.776,17.235z M31.608,2.589   v10.355c0,1.423,1.167,2.589,2.591,2.589h1.654v5.062l7.079-5.062h4.476c1.427,0,2.592-1.164,2.592-2.589V2.589   C50,1.165,48.833,0,47.408,0H34.199C32.774,0,31.608,1.165,31.608,2.589z M34.44,2.83h12.727v9.873h-5.144l-3.337,2.386v-2.386   H34.44V2.83z M40.803,3.281c-0.697,0-1.264,0.566-1.264,1.263c0,0.697,0.567,1.263,1.264,1.263c0.698,0,1.265-0.566,1.265-1.263   C42.067,3.847,41.5,3.281,40.803,3.281z M41.897,6.441h-2.68v1.492h0.492v2.829h-0.492v1.491h3.173v-1.491h-0.493V6.441z    M29.026,34.552c2.249,0.357,4.605,0.95,6.341,2.406c1.976,1.658,2.547,3.977,2.547,6.477v3.735H2.833v-3.735   c0-2.5,0.571-4.819,2.546-6.477c1.735-1.456,4.091-2.049,6.34-2.406l8.653,7.607L29.026,34.552z M37.188,34.791   c-2.552-2.141-5.843-2.799-9.052-3.226l-7.763,6.825l-7.763-6.825c-3.208,0.427-6.5,1.086-9.052,3.226   C1.327,36.663,0,39.403,0,43.435V50h40.746v-6.565C40.746,39.403,39.418,36.663,37.188,34.791z M13.018,15.727   c1.206-3.332,3.856-4.762,7.354-4.762c3.498,0,6.148,1.43,7.354,4.761c0.232,0.64,0.389,1.309,0.483,1.988   c-3.671-0.85-6.362-2.043-9.623-3.795c-2.014,1.398-3.715,2.502-6.006,3.5C12.677,16.842,12.82,16.274,13.018,15.727z"/></g><text x="0" y="65" fill="#000000" font-size="5px" font-weight="bold" font-family="'Helvetica Neue', Helvetica, Arial-Unicode, Arial, Sans-serif">Created by Georgiana Ionescu</text><text x="0" y="70" fill="#000000" font-size="5px" font-weight="bold" font-family="'Helvetica Neue', Helvetica, Arial-Unicode, Arial, Sans-serif">from the Noun Project</text></svg>