<svg xmlns="http://www.w3.org/2000/svg" data-name="Layer 1" viewBox="0 0 100 125" x="0px" y="0px"><title>Pin</title><path d="M50,0a36.23,36.23,0,0,0-31.2,54.61,9.86,9.86,0,0,0,.46.92L43.06,96a8.05,8.05,0,0,0,13.87,0L80.75,55.53c.17-.31.32-.61.46-.92A36.23,36.23,0,0,0,50,0Zm0,50.53a15,15,0,1,1,15-15A15,15,0,0,1,50,50.53Z"/><text x="0" y="115" fill="#000000" font-size="5px" font-weight="bold" font-family="'Helvetica Neue', Helvetica, Arial-Unicode, Arial, Sans-serif">Created by Rainbow Designs</text><text x="0" y="120" fill="#000000" font-size="5px" font-weight="bold" font-family="'Helvetica Neue', Helvetica, Arial-Unicode, Arial, Sans-serif">from the Noun Project</text></svg>