<svg xmlns="http://www.w3.org/2000/svg" xmlns:xlink="http://www.w3.org/1999/xlink" version="1.1" x="0px" y="0px" viewBox="0 0 27.4 34.375" style="enable-background:new 0 0 27.4 27.5;" xml:space="preserve"><style type="text/css">
	.st0{fill:#010101;}
</style><text transform="matrix(1 0 0 1 6.3992 42.542)" class="st0" style="" font-family="'ProximaNovaSoft-Regular'" font-size="8.9159px">CALL</text><path class="st0" d="M26.5,19.7c-1.2-1.1-2.3-2.3-3.4-3.4c-1.2-1.2-2.9-1.2-4.2,0l-0.2,0.1c-0.6,0.6-1.2,1.1-1.8,1.8  c-0.1-0.1-0.2-0.1-0.3-0.1c-0.2-0.1-0.6-0.2-0.8-0.4c-1.8-1.1-3.4-2.6-5.1-4.6c-0.8-0.9-1.3-1.8-1.7-2.6c0.5-0.5,1-1,1.5-1.5  l0.4-0.4c1.3-1.3,1.3-3,0-4.3c-0.4-0.4-0.8-0.8-1.2-1.2L9.4,2.6l0,0C9.2,2.4,9.1,2.3,8.9,2.1C8.5,1.7,8.1,1.3,7.7,0.9  c-1.2-1.2-2.9-1.2-4.2,0C3.2,1.2,2.9,1.5,2.6,1.8C2.2,2.2,1.8,2.6,1.4,3C0.6,3.8,0.1,4.8,0,5.9c-0.2,1.8,0.3,3.4,0.8,4.6  c1,2.7,2.6,5.2,4.7,7.9c2.7,3.2,5.9,5.7,9.6,7.5c2.1,1,3.8,1.5,5.5,1.6c0.2,0,0.2,0,0.4,0c1.5,0,2.7-0.5,3.6-1.6  c0.4-0.4,0.8-0.8,1.2-1.2c0.2-0.2,0.4-0.4,0.7-0.6C27.8,22.7,27.8,21,26.5,19.7z M25.2,22.8c-0.2,0.2-0.4,0.4-0.7,0.6  c-0.4,0.4-0.9,0.9-1.3,1.4c-0.7,0.7-1.4,1-2.6,0.9c-1.4-0.1-3-0.6-4.8-1.4c-3.4-1.7-6.5-4.1-9.1-7.1c-2-2.4-3.4-4.8-4.4-7.3  C1.9,8.4,1.6,7.3,1.7,6.1C1.8,5.4,2,4.9,2.5,4.4C3,4,3.4,3.5,3.8,3.1c0.3-0.3,0.6-0.6,0.8-0.8C5,2,5.3,1.8,5.6,1.8S6.2,2,6.5,2.3  c0.4,0.4,0.8,0.8,1.2,1.2C7.8,3.6,8,3.8,8.2,4l0.5,0.5c0.4,0.4,0.8,0.8,1.2,1.2c0.7,0.7,0.7,1.2,0,1.8L9.4,7.9  C8.9,8.4,8.3,9,7.7,9.5C7.4,9.8,7.1,10.3,7.4,11c0.4,1.1,1.1,2.1,2,3.3c1.7,2.1,3.5,3.8,5.5,5c0.3,0.2,0.6,0.4,0.9,0.5  c0.2,0.1,0.3,0.1,0.5,0.2c0.6,0.3,1.2,0.2,1.7-0.2c0.7-0.6,1.3-1.3,1.9-1.9l0.2-0.1c0.6-0.6,1.2-0.6,1.8,0c1.1,1.1,2.2,2.2,3.4,3.4  C25.8,21.5,25.8,22.2,25.2,22.8z"/><text x="0" y="42.5" fill="#000000" font-size="5px" font-weight="bold" font-family="'Helvetica Neue', Helvetica, Arial-Unicode, Arial, Sans-serif">Created by Antony</text><text x="0" y="47.5" fill="#000000" font-size="5px" font-weight="bold" font-family="'Helvetica Neue', Helvetica, Arial-Unicode, Arial, Sans-serif">from the Noun Project</text></svg>