<svg xmlns="http://www.w3.org/2000/svg" xmlns:xlink="http://www.w3.org/1999/xlink" version="1.1" x="0px" y="0px" viewBox="0 0 100 125" enable-background="new 0 0 100 100" xml:space="preserve"><g><g><path d="M47.109,57.58C38.778,57.58,32,50.802,32,42.47s6.778-15.11,15.109-15.11s15.109,6.778,15.109,15.11    S55.44,57.58,47.109,57.58z M47.109,29.36C39.881,29.36,34,35.241,34,42.47c0,7.229,5.881,13.109,13.109,13.109    s13.109-5.881,13.109-13.109C60.219,35.241,54.338,29.36,47.109,29.36z"/></g><g><path d="M67.222,64.834c-0.64,0-1.279-0.244-1.768-0.732l-8.083-8.083c-0.977-0.976-0.977-2.559,0-3.535    c0.977-0.977,2.559-0.977,3.535,0l8.083,8.083c0.977,0.976,0.977,2.559,0,3.535C68.501,64.59,67.861,64.834,67.222,64.834z"/></g><g><path d="M38.856,40.998l-1.883-0.674c1.108-3.097,3.354-5.575,6.323-6.979c2.967-1.403,6.307-1.567,9.405-0.458l-0.674,1.883    c-2.594-0.928-5.391-0.792-7.877,0.383S39.785,38.404,38.856,40.998z"/></g></g><text x="0" y="115" fill="#000000" font-size="5px" font-weight="bold" font-family="'Helvetica Neue', Helvetica, Arial-Unicode, Arial, Sans-serif">Created by ioKanda</text><text x="0" y="120" fill="#000000" font-size="5px" font-weight="bold" font-family="'Helvetica Neue', Helvetica, Arial-Unicode, Arial, Sans-serif">from the Noun Project</text></svg>