<svg xmlns="http://www.w3.org/2000/svg" xmlns:xlink="http://www.w3.org/1999/xlink" version="1.1" x="0px" y="0px" viewBox="1 -1 100 125" style="enable-background:new 1 -1 100 100;" xml:space="preserve"><g><path d="M96.3,18L96,17.7c-0.4-0.4-1.1-1-2.2-1H24.8L24.5,15c-0.7-4.6-4.7-8-9.4-8h-7C6.4,7,5.2,8.3,5.2,9.9s1.3,2.9,2.9,2.9h7.1   c1.8,0,3.3,1.3,3.6,3l6,36.1c0,0.3,0.1,0.6,0.2,0.8l1,6.2c0.9,5.5,5.8,9.6,11.3,9.6h46.4c1.7,0,2.9-1.3,2.9-2.9s-1.3-2.9-2.9-2.9   H37.2c-2.8,0-5.1-2-5.5-4.6l-0.6-3.3h54c0.6,0.1,1.1,0.1,1.6-0.2c0.7-0.4,1.3-1.1,1.5-1.9l8.4-32.1C97,19.7,96.8,18.8,96.3,18z    M90.2,22.7l-7,26.4H30.2l-4.3-26.4H90.2z"/><path d="M38.1,71.3c-5.4,0-9.8,4.4-9.8,9.8s4.4,9.8,9.8,9.8s9.8-4.4,9.8-9.8S43.5,71.3,38.1,71.3z M38.1,77.2   c2.2,0,3.8,1.7,3.8,3.9c0,2.1-1.8,3.9-3.9,3.9c-2.1,0-3.8-1.8-3.8-3.9S35.9,77.2,38.1,77.2z"/><path d="M70.5,71.3c-5.4,0-9.8,4.4-9.8,9.8S65,91,70.5,91s9.8-4.4,9.8-9.8S75.9,71.3,70.5,71.3z M70.4,77.2c2.2,0,3.9,1.7,3.9,3.9   c0,2.1-1.8,3.9-3.9,3.9s-3.9-1.8-3.9-3.9C66.4,79,68.2,77.2,70.4,77.2z"/></g><text x="1" y="114" fill="#000000" font-size="5px" font-weight="bold" font-family="'Helvetica Neue', Helvetica, Arial-Unicode, Arial, Sans-serif">Created by Fantastic</text><text x="1" y="119" fill="#000000" font-size="5px" font-weight="bold" font-family="'Helvetica Neue', Helvetica, Arial-Unicode, Arial, Sans-serif">from the Noun Project</text></svg>