<svg xmlns="http://www.w3.org/2000/svg" xmlns:xlink="http://www.w3.org/1999/xlink" viewBox="0 0 100 125" version="1.1" x="0px" y="0px"><title>Levers 4.4</title><desc>Created with Sketch.</desc><g stroke="none" stroke-width="1" fill="none" fill-rule="evenodd"><g fill-rule="nonzero" fill="#000000"><path d="M71,46.2905042 L71,30 C71,28.8954305 70.1045695,28 69,28 C67.8954305,28 67,28.8954305 67,30 L67,46.2907295 C64.1124114,47.1521922 62,49.8300237 62,53 C62,56.1645682 64.1085111,58.8472523 67,59.7094958 L67,70 C67,71.1045695 67.8954305,72 69,72 C70.1045695,72 71,71.1045695 71,70 L71,59.7092705 C73.8875886,58.8478078 76,56.1699763 76,53 C76,49.8354318 73.8914889,47.1527477 71,46.2905042 L71,46.2905042 Z M52,31.2905042 L52,30 C52,28.8954305 51.1045695,28 50,28 C48.8954305,28 48,28.8954305 48,30 L48,31.2907295 C45.1124114,32.1521922 43,34.8300237 43,38 C43,41.1645682 45.1085111,43.8472523 48,44.7094958 L48,70 C48,71.1045695 48.8954305,72 50,72 C51.1045695,72 52,71.1045695 52,70 L52,44.7092705 C54.8875886,43.8478078 57,41.1699763 57,38 C57,34.8354318 54.8914889,32.1527477 52,31.2905042 Z M33,55.2905042 L33,30 C33,28.8954305 32.1045695,28 31,28 C29.8954305,28 29,28.8954305 29,30 L29,55.2907295 C26.1124114,56.1521922 24,58.8300237 24,62 C24,65.1645682 26.1085111,67.8472523 29,68.7094958 L29,70 C29,71.1045695 29.8954305,72 31,72 C32.1045695,72 33,71.1045695 33,70 L33,68.7092705 C35.8875886,67.8478078 38,65.1699763 38,62 C38,58.8354318 35.8914889,56.1527477 33,55.2905042 L33,55.2905042 Z"/></g></g><text x="0" y="115" fill="#000000" font-size="5px" font-weight="bold" font-family="'Helvetica Neue', Helvetica, Arial-Unicode, Arial, Sans-serif">Created by Landan Lloyd</text><text x="0" y="120" fill="#000000" font-size="5px" font-weight="bold" font-family="'Helvetica Neue', Helvetica, Arial-Unicode, Arial, Sans-serif">from the Noun Project</text></svg>