<svg xmlns="http://www.w3.org/2000/svg" data-name="Layer 1" viewBox="0 0 32 40" x="0px" y="0px"><title>Ecommerce</title><path d="M16,1A15,15,0,1,0,31,16,15,15,0,0,0,16,1Zm0,28A13,13,0,1,1,29,16,13,13,0,0,1,16,29Z"/><path d="M14.38,7.08a1,1,0,0,0-1.09.22l-4,4a1,1,0,0,0,1.41,1.41L13,10.41V24a1,1,0,0,0,2,0V8A1,1,0,0,0,14.38,7.08Z"/><path d="M21.29,19.29,19,21.59V8a1,1,0,0,0-2,0V24a1,1,0,0,0,1.71.71l4-4a1,1,0,0,0-1.41-1.41Z"/><text x="0" y="47" fill="#000000" font-size="5px" font-weight="bold" font-family="'Helvetica Neue', Helvetica, Arial-Unicode, Arial, Sans-serif">Created by Azmi Anshori</text><text x="0" y="52" fill="#000000" font-size="5px" font-weight="bold" font-family="'Helvetica Neue', Helvetica, Arial-Unicode, Arial, Sans-serif">from the Noun Project</text></svg>