<svg xmlns="http://www.w3.org/2000/svg" xmlns:xlink="http://www.w3.org/1999/xlink" version="1.1" x="0px" y="0px" viewBox="0 0 20 25" enable-background="new 0 0 20 20" xml:space="preserve"><g><path fill="#000000" d="M10,0v2c4.4,0,8,3.6,8,8s-3.6,8-8,8c-4.4,0-8-3.6-8-8c0-2,0.7-3.8,2-5.3V6h2V1H1v2h1.9C1.1,4.9,0,7.3,0,10   c0,5.5,4.5,10,10,10c5.5,0,10-4.5,10-10C20,4.5,15.5,0,10,0z"/><path fill="#000000" d="M6,8v7h8V8h-1V7c0-1.7-1.3-3-3-3S7,5.3,7,7v1H6z M12,13H8v-3h4V13z M9,7c0-0.6,0.4-1,1-1s1,0.4,1,1v1H9V7z"/></g><text x="0" y="35" fill="#000000" font-size="5px" font-weight="bold" font-family="'Helvetica Neue', Helvetica, Arial-Unicode, Arial, Sans-serif">Created by ProSymbols</text><text x="0" y="40" fill="#000000" font-size="5px" font-weight="bold" font-family="'Helvetica Neue', Helvetica, Arial-Unicode, Arial, Sans-serif">from the Noun Project</text></svg>