<svg xmlns="http://www.w3.org/2000/svg" xmlns:xlink="http://www.w3.org/1999/xlink" version="1.1" x="0px" y="0px" viewBox="0 0 100 125" enable-background="new 0 0 100 100" xml:space="preserve"><g><g><path d="M99.691,61.595c-1.923-4.046-3.883-8.082-5.806-12.126c-0.997-2.122-1.961-4.261-2.922-6.391    c-0.611-1.375-1.681-1.718-2.896-0.89c-2.472,1.69-9.921,6.79-14.138,6.836c-2.258,0.025-4.449-0.278-6.589-0.863    c-1.402-0.376-2.777-0.854-4.144-1.392c-2.104-0.836-4.172-1.717-6.096-1.789c-1.445-0.009-2.363,0.098-3.19,0.809l-0.18,0.162    l-1.717,1.573c-0.009,0-0.009,0-0.009,0l-6.589,6.04c-0.126,0.117-0.243,0.243-0.359,0.369c-0.145,0.107-0.288,0.215-0.414,0.342    l-6.588,6.031c-0.117,0.107-0.225,0.217-0.315,0.323c-0.072,0.063-0.135,0.145-0.197,0.224c-0.189,0.244-0.334,0.541-0.396,0.818    c-0.395,1.997,1.708,4.837,3.722,5.205c2.597,0.469,5.005-0.008,7.109-1.547c1.293-0.943,2.713-2.014,4.153-3.1    c0.396-0.307,0.792-0.604,1.187-0.9c0.027-0.026,0.055-0.044,0.081-0.062c0.377-0.298,0.755-0.585,1.134-0.871    c0,0,0-0.01,0.008-0.01c1.123-0.711,2.426-1.08,3.783-1.08c0.647,0,1.277,0.082,1.879,0.242c0.972,0.263,1.87,0.73,2.661,1.367    c0.027,0.009,0.045,0.035,0.072,0.054c0.125,0.109,0.261,0.227,0.386,0.342c0.035,0.036,0.062,0.063,0.099,0.099    c0.306,0.252,0.603,0.53,0.899,0.819c0.854,0.809,1.662,1.653,2.455,2.534l2.956,2.967c0.135,0.126,0.244,0.261,0.361,0.395    c0.133,0.117,0.258,0.225,0.384,0.353l6.319,6.309c0,0.01,0,0.01,0.008,0.01l2.744,2.742c0.816,0.43,1.654,0.294,2.535-0.433    c1.349-1.123,3.423-2.761,4.798-3.848c2.043-1.618,10.068-7.349,12.137-8.921C99.979,63.599,100.231,62.727,99.691,61.595z"/><path d="M28.078,71.595c-1.407-1.407-3.69-1.407-5.098,0l-6.317,6.317c-1.409,1.409-1.409,3.692-0.002,5.098    c1.41,1.41,3.693,1.41,5.099,0.003l6.318-6.32C29.486,75.286,29.486,73.003,28.078,71.595z"/><path d="M35.59,77.288c-1.409-1.408-3.691-1.408-5.1,0l-6.318,6.318c-1.407,1.407-1.407,3.689,0,5.098    c1.41,1.408,3.692,1.408,5.099,0.001l6.318-6.318C36.997,80.979,36.997,78.695,35.59,77.288z"/><path d="M43.454,81.941c-1.407-1.407-3.69-1.407-5.098,0l-6.317,6.32c-1.409,1.406-1.409,3.69-0.001,5.097    c1.409,1.409,3.691,1.409,5.099,0.001l6.317-6.317C44.861,85.632,44.861,83.351,43.454,81.941z"/><path d="M51.554,92.029c0.761-1.077,0.854-2.471,0.281-3.631c-0.164-0.352-0.399-0.68-0.691-0.973    c-0.294-0.293-0.62-0.527-0.973-0.692c-1.09-0.538-2.403-0.479-3.445,0.165c-0.247,0.141-0.469,0.316-0.68,0.527l-6.315,6.327    c-1.406,1.406-1.406,3.692,0,5.098c1.406,1.406,3.69,1.406,5.097,0l6.316-6.316C51.297,92.384,51.436,92.206,51.554,92.029z"/><path d="M69.938,71.115c-0.07-0.081-0.152-0.164-0.235-0.233l-1.324-1.327l-0.233-0.231l-2.049-2.063l-1.186-1.172l-1.745-1.758    l-0.105-0.094l-0.516-0.516l-0.715-0.715c-0.306-0.315-0.645-0.574-1.008-0.772c-0.434-0.271-0.924-0.459-1.431-0.552    c-0.34-0.093-0.701-0.129-1.065-0.129c-0.89,0-1.746,0.233-2.496,0.681c-0.175,0.095-0.341,0.198-0.493,0.327    c-0.186,0.13-0.35,0.281-0.515,0.445c-0.024,0.022-0.059,0.047-0.083,0.083c-0.444,0.387-0.913,0.773-1.369,1.147    c-0.457,0.363-0.915,0.716-1.383,1.066c-0.27,0.199-0.552,0.41-0.831,0.598v0.011c-1.302,0.915-2.685,1.748-4.115,2.461    c-4.674,2.272-9.385,1.23-12.115-3.562c-0.106-0.187-0.2-0.374-0.27-0.574c-0.094-0.259-0.165-0.516-0.211-0.785    c-0.247-1.489,0.27-3.116,1.359-4.148c2.989-2.812,5.978-5.637,8.954-8.459c1.111-1.043,2.237-2.098,3.374-3.188    c0.282-0.27,0.575-0.539,0.867-0.82c-0.855-0.715-1.816-0.878-2.776-0.925c-0.107-0.013-0.2-0.023-0.306-0.023    c-3.668-0.154-7.205,0.632-10.721,1.523c-0.152,0.035-0.292,0.082-0.445,0.117c-0.083,0.024-0.165,0.047-0.246,0.07    c-0.458,0.164-0.903,0.305-1.359,0.421c-0.165,0.047-0.317,0.094-0.481,0.141c-0.973,0.304-1.957,0.575-2.954,0.714    c-1.452,0.199-2.8,0.223-3.643,0.153c-1.664-0.129-3.832-0.833-6-1.898c-3.317-1.641-6.632-3.915-8.133-4.945    c-0.586-0.387-1.124-0.516-1.604-0.398c-0.528,0.129-0.973,0.574-1.301,1.29c-0.961,2.131-1.921,4.276-2.918,6.397    c-1.921,4.043-3.878,8.073-5.801,12.116c-0.539,1.136-0.292,2.015,0.669,2.741c2.073,1.581,10.1,7.312,12.139,8.929    c0.305,0.247,0.645,0.516,1.007,0.797c0.046,0.035,0.093,0.071,0.141,0.105c0.657,0.48,1.23,0.903,1.7,1.265l5.425-5.423    c1.101-1.104,2.566-1.714,4.136-1.714c1.16,0,2.261,0.343,3.211,0.963c0.327,0.21,0.644,0.47,0.925,0.751    c0.128,0.128,0.258,0.256,0.363,0.396c0.082,0.095,0.152,0.188,0.223,0.28c0.07,0.107,0.152,0.214,0.222,0.319    c0.083,0.128,0.152,0.268,0.223,0.386c0.012,0.034,0.047,0.069,0.059,0.116c0.047,0.105,0.106,0.211,0.142,0.306    c0.046,0.092,0.081,0.186,0.116,0.28c0.024,0.095,0.058,0.177,0.083,0.26c0.058,0.15,0.094,0.293,0.117,0.442    c0.035,0.13,0.058,0.247,0.082,0.376c0.036,0.165,0.047,0.329,0.059,0.492c0.024,0.188,0.036,0.387,0.024,0.574    c0.023-0.012,0.058-0.023,0.07-0.023c0.152-0.047,0.293-0.081,0.445-0.104c0.13-0.023,0.271-0.06,0.411-0.06    c0.093-0.022,0.187-0.034,0.293-0.034c0.152-0.013,0.293-0.024,0.445-0.024c0.176,0,0.363,0.012,0.527,0.024    c0.046,0,0.094,0.012,0.141,0.012c0.339,0.046,0.68,0.105,1.007,0.21c0.457,0.127,0.903,0.327,1.324,0.586    c0.012,0,0.024,0,0.036,0.023c0.105,0.06,0.2,0.129,0.293,0.188c0.094,0.06,0.188,0.13,0.281,0.21    c0.082,0.06,0.153,0.118,0.222,0.188c0.104,0.083,0.21,0.177,0.304,0.271c0.13,0.129,0.236,0.259,0.354,0.387    c0.047,0.059,0.092,0.117,0.139,0.188c0.106,0.117,0.176,0.232,0.258,0.349c0.095,0.142,0.188,0.281,0.258,0.437    c0.187,0.338,0.34,0.689,0.445,1.065c0.047,0.15,0.094,0.293,0.118,0.444c0.034,0.154,0.07,0.307,0.081,0.456    c0.656-0.255,1.358-0.385,2.074-0.385c1.571,0,3.036,0.607,4.136,1.71c0.692,0.693,1.172,1.513,1.441,2.392    c0.13,0.396,0.211,0.796,0.247,1.207c0.011,0.163,0.023,0.327,0.023,0.479c0.246-0.081,0.493-0.151,0.75-0.198    c0.152-0.035,0.303-0.046,0.457-0.07h0.118c0.175-0.024,0.351-0.035,0.526-0.035c0.118,0,0.234,0,0.353,0.011    c1.43,0.083,2.753,0.681,3.784,1.714c1.137,1.135,1.711,2.635,1.711,4.135c0,0.186-0.011,0.363-0.035,0.539    c0.013,0.012,0.013,0.022,0,0.034c-0.012,0.131-0.022,0.26-0.047,0.375c0,0.023-0.012,0.035-0.012,0.059    c-0.022,0.235-0.081,0.445-0.152,0.655c-0.036,0.142-0.082,0.281-0.141,0.423c0,0,0,0.013-0.011,0.035    c-0.024,0.059-0.047,0.129-0.083,0.2c-0.034,0.083-0.081,0.177-0.117,0.258c-0.035,0.058-0.071,0.129-0.104,0.199    c-0.141,0.269-0.305,0.515-0.492,0.762c-0.023,0.035-0.06,0.081-0.094,0.118c-0.047,0.057-0.095,0.115-0.143,0.161    c-0.08,0.118-0.186,0.225-0.28,0.317l-5.167,5.167c0.715,0.398,1.535,0.622,2.379,0.622c1.148,0,2.249-0.387,3.116-1.114    c0.023-0.013,0.036-0.024,0.059-0.047c0.106-0.082,0.212-0.188,0.317-0.293c0.504-0.504,0.878-1.089,1.124-1.711    c0.199-0.526,0.305-1.09,0.316-1.639c0.738,0.42,1.57,0.643,2.426,0.643c1.325,0,2.567-0.514,3.503-1.452    c1.172-1.172,1.63-2.8,1.36-4.335c0.891,0.763,2.016,1.172,3.199,1.172c1.323,0,2.553-0.516,3.491-1.454    c1.231-1.218,1.676-2.93,1.347-4.51c0.763,0.467,1.63,0.727,2.543,0.727c1.336,0,2.578-0.518,3.505-1.467    c1.933-1.92,1.933-5.061,0-6.993L69.938,71.115z"/></g></g><text x="0" y="115" fill="#000000" font-size="5px" font-weight="bold" font-family="'Helvetica Neue', Helvetica, Arial-Unicode, Arial, Sans-serif">Created by gilbert bages</text><text x="0" y="120" fill="#000000" font-size="5px" font-weight="bold" font-family="'Helvetica Neue', Helvetica, Arial-Unicode, Arial, Sans-serif">from the Noun Project</text></svg>