<svg xmlns="http://www.w3.org/2000/svg" xmlns:xlink="http://www.w3.org/1999/xlink" version="1.1" x="0px" y="0px" viewBox="0 0 66 82.5" enable-background="new 0 0 66 66" xml:space="preserve"><g><path d="M33,15C21.4,15,9.8,21,1,33c17.7,24,46.3,24,64,0C56.2,21,44.6,15,33,15z M29,25c2.2,0,4,1.8,4,4c0,2.2-1.8,4-4,4   c-2.2,0-4-1.8-4-4C25,26.8,26.8,25,29,25z M33,45c-8.9,0-17.4-4.2-24.3-12c4.2-4.7,8.9-8.1,13.9-10c-1.1,1.8-1.6,3.8-1.6,6   c0,6.6,5.4,12,12,12s12-5.4,12-12c0-2.2-0.6-4.3-1.6-6c5,2,9.8,5.3,13.9,10C50.4,40.8,41.9,45,33,45z"/></g><text x="0" y="81" fill="#000000" font-size="5px" font-weight="bold" font-family="'Helvetica Neue', Helvetica, Arial-Unicode, Arial, Sans-serif">Created by Vectors Market</text><text x="0" y="86" fill="#000000" font-size="5px" font-weight="bold" font-family="'Helvetica Neue', Helvetica, Arial-Unicode, Arial, Sans-serif">from the Noun Project</text></svg>