<svg xmlns:dc="http://purl.org/dc/elements/1.1/" xmlns:cc="http://creativecommons.org/ns#" xmlns:rdf="http://www.w3.org/1999/02/22-rdf-syntax-ns#" xmlns:svg="http://www.w3.org/2000/svg" xmlns="http://www.w3.org/2000/svg" xmlns:sodipodi="http://sodipodi.sourceforge.net/DTD/sodipodi-0.dtd" xmlns:inkscape="http://www.inkscape.org/namespaces/inkscape" version="1.1" x="0px" y="0px" viewBox="0 0 100 125"><g transform="translate(0,-952.36218)"><path style="text-indent:0;text-transform:none;direction:ltr;block-progression:tb;baseline-shift:baseline;color:#000000;enable-background:accumulate;" d="m 17,965.3622 c -4.9341,0 -9.0000001,4.0659 -9.0000001,9 l 0,57 c 0,4.3801 3.6199001,8 8.0000001,8 l 68,0 c 4.3801,0 8,-3.6199 8,-8 l 0,-46 c 0,-4.3801 -3.6199,-8 -8,-8 l -4,0 0,-9 c -2e-4,-1.5708 -1.4293,-2.99981 -3,-3 z m 0,6 57,0 0,6 -57,0 c -1.7139,0 -3,-1.28611 -3,-3 0,-1.7139 1.2861,-3 3,-3 z m -3,11.46875 c 0.9409,0.3377 1.9495,0.53125 3,0.53125 l 67,0 c 1.1599,0 2,0.8401 2,2 l 0,10 -28,0 c -3.2721,0 -6,2.72785 -6,6 l 0,14 c 0,3.2721 2.7279,6 6,6 l 28,0 0,10 c 0,1.1599 -0.8401,2 -2,2 l -68,0 c -1.1599,0 -2,-0.8401 -2,-2 z m 44,18.53125 28,0 0,14 -28,0 z m 10,3 c -2.2091,0 -4,1.7909 -4,4 0,2.2092 1.7909,4 4,4 2.2091,0 4,-1.7908 4,-4 0,-2.2091 -1.7909,-4 -4,-4 z" fill="#000000" fill-opacity="1" fill-rule="nonzero" stroke="none" marker="none" visibility="visible" display="inline" overflow="visible"/></g><text x="0" y="115" fill="#000000" font-size="5px" font-weight="bold" font-family="'Helvetica Neue', Helvetica, Arial-Unicode, Arial, Sans-serif">Created by Rockicon</text><text x="0" y="120" fill="#000000" font-size="5px" font-weight="bold" font-family="'Helvetica Neue', Helvetica, Arial-Unicode, Arial, Sans-serif">from the Noun Project</text></svg>